<svg width="12" height="12" viewBox="0 0 12 12" fill="none" xmlns="http://www.w3.org/2000/svg">
<path fill-rule="evenodd" clip-rule="evenodd" d="M1 0C0.447266 0 0 0.447754 0 1V11C0 11.5522 0.447266 12 1 12H6.45215V7.52734H5V5.75H6.45215V4.34961C6.45215 2.82812 7.35352 2 8.66992 2C9.30078 2 9.84277 2.04883 10 2.07031V3.66064H9.08691C8.37109 3.66064 8.2334 4.01221 8.23242 4.52588V5.75049H9.84766L9.62695 7.52783H8.2334V12H11C11.3379 12 11.6367 11.8325 11.8174 11.5757C11.9326 11.4131 12 11.2144 12 11V1C12 0.447754 11.5527 0 11 0H1Z" fill="white"/>
</svg>
