<svg width="12" height="12" viewBox="0 0 12 12" fill="none" xmlns="http://www.w3.org/2000/svg">
<path fill-rule="evenodd" clip-rule="evenodd" d="M11.6905 2.07225C11.8383 2.45209 11.9414 2.89044 11.9695 3.52804C11.9976 4.16803 12 4.37196 12 6.00119C12 7.63042 11.9929 7.83435 11.9648 8.47434C11.9367 9.11195 11.8335 9.54801 11.6859 9.93013C11.374 10.7365 10.7363 11.3741 9.92965 11.6859C9.54983 11.8336 9.11139 11.9367 8.47366 11.9648C7.83355 11.993 7.62959 12 6.00005 12C4.37051 12 4.16645 11.993 3.52643 11.9648C2.88861 11.9367 2.45255 11.8336 2.07036 11.6859C1.67176 11.5359 1.30834 11.2991 1.0082 10.9944C0.703399 10.6943 0.466643 10.3333 0.31424 9.93013C0.166508 9.5503 0.0632876 9.11195 0.0351699 8.47434C0.0070523 7.83435 0 7.63042 0 6.00119C0 4.37196 0.0070523 4.16803 0.0375512 3.52566C0.0656689 2.88805 0.168797 2.45209 0.316529 2.06996C0.466643 1.67144 0.703399 1.30809 1.0082 1.00801C1.30834 0.700884 1.66938 0.466462 2.07274 0.314088C2.45255 0.166476 2.89099 0.0632755 3.52872 0.0351632C4.16883 0.00705095 4.3728 0 6.00234 0C7.63188 0 7.83584 0.00705095 8.47834 0.0375441C9.11607 0.0656563 9.55221 0.168765 9.93432 0.316469C10.3329 0.466462 10.6963 0.703265 10.9965 1.00801C11.3037 1.30809 11.5381 1.66906 11.6905 2.07225ZM10.6816 9.54123C10.7637 9.33025 10.8621 9.01378 10.888 8.42772C10.9161 7.79479 10.9231 7.60725 10.9231 6.00613C10.9231 4.40502 10.9161 4.21519 10.888 3.58225C10.8621 2.99849 10.7637 2.67973 10.6816 2.46875C10.5855 2.2085 10.4331 1.97408 10.2338 1.77949C10.0415 1.58024 9.80467 1.42786 9.54447 1.3318C9.33345 1.24976 9.01692 1.15132 8.43075 1.1255C7.79998 1.09738 7.61012 1.09033 6.00632 1.09033C4.40498 1.09033 4.21503 1.09738 3.58197 1.1255C2.99819 1.15132 2.67928 1.24976 2.46826 1.3318C2.20796 1.42786 1.9735 1.58024 1.77896 1.77949C1.57729 1.97179 1.42488 2.2085 1.32871 2.46875C1.24665 2.67973 1.14819 2.9962 1.12246 3.58225C1.09425 4.21281 1.08729 4.40502 1.08729 6.00613C1.08729 7.60725 1.09425 7.79717 1.12246 8.43011C1.14819 9.01378 1.24665 9.33263 1.32871 9.54361C1.42488 9.80376 1.57729 10.0382 1.77658 10.2328C1.96883 10.432 2.20567 10.5844 2.46588 10.6806C2.6769 10.7626 2.99342 10.861 3.57959 10.8868C4.21036 10.915 4.4026 10.9219 6.00403 10.9219C7.60545 10.9219 7.79531 10.915 8.42837 10.8868C9.01225 10.861 9.33107 10.7626 9.54208 10.6806C10.065 10.4789 10.48 10.064 10.6816 9.54123ZM2.91933 6.00159C2.91933 4.29965 4.30039 2.91895 6.00256 2.91895C7.70482 2.91895 9.08579 4.29965 9.08579 6.00159C9.08579 7.70353 7.70482 9.08423 6.00256 9.08423C4.30039 9.08423 2.91933 7.70353 2.91933 6.00159ZM4.00309 6.0011C4.00309 7.10526 4.89883 8.00073 6.00311 8.00073C7.10748 8.00073 8.00312 7.10526 8.00312 6.0011C8.00312 4.89694 7.10748 4.00146 6.00311 4.00146C4.89883 4.00146 4.00309 4.89694 4.00309 6.0011ZM9.20768 3.51646C9.60527 3.51646 9.92757 3.19422 9.92757 2.7968C9.92757 2.39929 9.60527 2.07715 9.20768 2.07715C8.81019 2.07715 8.48789 2.39929 8.48789 2.7968C8.48789 3.19422 8.81019 3.51646 9.20768 3.51646Z" fill="white"/>
</svg>
