<svg width="12" height="12" viewBox="0 0 12 12" fill="none" xmlns="http://www.w3.org/2000/svg"><path fill-rule="evenodd" clip-rule="evenodd" d="M11.69 2.072c.148.38.251.818.28 1.456.028.64.03.844.03 2.473 0 1.63-.007 1.833-.035 2.473-.028.638-.131 1.074-.28 1.456a3.07 3.07 0 01-1.755 1.756c-.38.148-.819.25-1.456.279C7.834 11.993 7.63 12 6 12c-1.63 0-1.834-.007-2.474-.035-.637-.028-1.073-.131-1.456-.28a2.955 2.955 0 01-1.062-.69A2.96 2.96 0 01.314 9.93c-.147-.38-.25-.818-.279-1.456C.007 7.834 0 7.63 0 6.001s.007-1.833.038-2.475c.028-.638.13-1.074.279-1.456.15-.399.386-.762.691-1.062A2.92 2.92 0 012.073.314c.38-.148.818-.25 1.456-.279C4.169.007 4.373 0 6.002 0c1.63 0 1.834.007 2.476.038.638.028 1.074.13 1.456.278.399.15.762.387 1.063.692.307.3.541.661.694 1.064zm-1.008 7.47c.082-.212.18-.528.206-1.114.028-.633.035-.82.035-2.422 0-1.601-.007-1.79-.035-2.424-.026-.584-.124-.902-.206-1.113a1.864 1.864 0 00-.448-.69 1.857 1.857 0 00-.69-.447c-.21-.082-.527-.18-1.113-.207-.631-.028-.82-.035-2.425-.035-1.601 0-1.791.007-2.424.035-.584.026-.903.125-1.114.207a1.87 1.87 0 00-.689.447 1.824 1.824 0 00-.45.69c-.082.21-.18.527-.207 1.113-.028.63-.035.823-.035 2.424s.007 1.791.035 2.424c.026.584.125.903.207 1.114.096.26.248.494.448.689.192.199.429.351.689.448.21.082.527.18 1.114.206.63.028.823.035 2.424.035s1.791-.007 2.424-.035c.584-.026.903-.124 1.114-.206a1.99 1.99 0 001.14-1.14zm-7.763-3.54a3.084 3.084 0 116.168.002 3.084 3.084 0 01-6.168-.002zm1.084 0a2 2 0 104-.002 2 2 0 00-4 .001zm5.205-2.486a.72.72 0 100-1.44.72.72 0 000 1.44z" fill="#393939"/></svg>