<svg width="12" height="12" viewBox="0 0 12 12" fill="none" xmlns="http://www.w3.org/2000/svg"><path fill-rule="evenodd" clip-rule="evenodd" d="M0 1a1 1 0 011-1h10a1 1 0 011 1v10a1 1 0 01-1 1H1a1 1 0 01-1-1V1zm3.82 9.128V4.644H2.101v5.484h1.717zm-.86-6.233c.6 0 .973-.421.973-.947C3.92 2.41 3.56 2 2.972 2S2 2.41 2 2.948c0 .526.373.947.95.947h.01zm3.527 6.233H4.77s.022-4.97 0-5.484h1.717v.777l-.01.018h.01v-.018c.228-.373.637-.906 1.55-.906 1.129 0 1.977.784 1.977 2.468v3.145H8.296V7.194c0-.4-.073-.73-.24-.949-.139-.185-.346-.29-.63-.29-.475 0-.758.338-.882.666a.81.81 0 00-.044.191 2.08 2.08 0 00-.013.253v3.063z" fill="#393939"/></svg>