<svg width="12" height="12" viewBox="0 0 12 12" fill="none" xmlns="http://www.w3.org/2000/svg">
<path fill-rule="evenodd" clip-rule="evenodd" d="M0 1C0 0.447754 0.447266 0 1 0H11C11.5527 0 12 0.447754 12 1V11C12 11.5522 11.5527 12 11 12H1C0.447266 12 0 11.5522 0 11V1ZM3.81934 10.1279V4.64355H2.10156V10.1279H3.81934ZM2.96094 3.89502C3.55957 3.89502 3.93262 3.47363 3.93262 2.94775C3.9209 2.40967 3.55957 2 2.97168 2C2.38379 2 2 2.40967 2 2.94775C2 3.47363 2.37305 3.89502 2.94922 3.89502H2.96094ZM6.4873 10.1279H4.76953C4.76953 10.1279 4.79199 5.1582 4.76953 4.64355H6.4873V5.42139C6.4834 5.42725 6.48047 5.43311 6.47656 5.43896H6.4873V5.42139C6.71484 5.04785 7.12402 4.51514 8.03613 4.51514C9.16602 4.51514 10.0137 5.29883 10.0137 6.9834V10.1279H8.2959V7.19434C8.2959 6.79492 8.22266 6.46436 8.05664 6.24512C7.91699 6.05957 7.70996 5.9541 7.42578 5.9541C6.95117 5.9541 6.66797 6.29297 6.54395 6.62061C6.52246 6.67578 6.50879 6.74121 6.5 6.8125C6.49023 6.89209 6.4873 6.97852 6.4873 7.06543V10.1279Z" fill="white"/>
</svg>
