<svg width="12" height="12" viewBox="0 0 12 12" fill="none" xmlns="http://www.w3.org/2000/svg"><path d="M12 2.184a5.03 5.03 0 01-1.418.398 2.5 2.5 0 001.083-1.394c-.476.29-1 .496-1.56.61A2.437 2.437 0 008.308 1C6.946 1 5.849 2.134 5.849 3.524c0 .2.017.392.057.575C3.861 3.997 2.051 2.992.836 1.46a2.59 2.59 0 00-.337 1.275c0 .874.439 1.649 1.092 2.097a2.383 2.383 0 01-1.111-.31v.027c0 1.226.853 2.245 1.971 2.48a2.4 2.4 0 01-.645.083c-.157 0-.317-.01-.466-.044.319 1 1.223 1.734 2.299 1.758A4.865 4.865 0 010 9.868 6.8 6.8 0 003.774 11c4.527 0 7.002-3.846 7.002-7.18 0-.112-.004-.22-.009-.326A4.98 4.98 0 0012 2.184z" fill="#393939"/></svg>