<svg id="Layer_1" version="1.1" viewBox="0 0 512 512" xml:space="preserve" xmlns="http://www.w3.org/2000/svg"><g fill="#fff"><path fill="#fff" d="M257.2 5h222.4C499 5 511 17 511 36.5v440.9c0 19.8-11.9 31.6-31.7 31.6H34.4C14.9 509 3 497 3 477.5V36.6C3 16.8 14.9 5 34.7 5h222.5zm-.7 490H479c12.3 0 18-5.7 18-18V37c0-12.3-5.7-18-18-18H35c-12.3 0-18 5.7-18 18v440c0 12.3 5.7 18 18 18h221.5z"/><path d="M257.9 143.3c35.6 1.3 71.1 2.3 106.5 3.8 24.3 1.1 38.5 13.7 42.4 38.4 2.3 14.4 3.5 29.1 4 43.7.9 27.5.8 55-2.7 82.3-1.4 11-4 21.7-11.1 30.6-8.9 11-21.4 14-34.8 14.7-56.4 3.1-112.9 3.9-169.3 1.6-16.5-.7-32.9-1.6-49.3-3.4-15.9-1.7-26.8-10.6-32.1-26.1-4.7-13.6-5.3-27.7-6.2-41.8-1.8-31.3-1.6-62.6 2-93.8.9-8.1 3.3-16.4 6.6-23.9 6.9-16 21-21.6 37.2-22.3 35.7-1.5 71.3-2.6 106.8-3.8zm-31.7 148.3c27.8-14.4 54.8-28.4 82.6-42.8-28.1-14.7-55.1-28.7-82.6-43.1v85.9z"/></g></svg>