<svg width="18" height="18" viewBox="0 0 18 18" version="1.1" xmlns="http://www.w3.org/2000/svg"><g id="News-+-Events" stroke="none" stroke-width="1" fill="none" fill-rule="evenodd"><g id="news-+-events-landing" transform="translate(-143 -3883)" fill="#000"><g id="Group-8" transform="translate(120 3377)"><g id="03-modules/cards/Article/Large/01-Enabled" transform="translate(0 154)"><g id="news-tag" transform="translate(16 345)"><g id="blog-icon" transform="translate(7 7)"><path d="M9.979 16.875L9 16.312l2.25-3.937h3.375c.621 0 1.125-.504 1.125-1.125V4.5c0-.621-.504-1.125-1.125-1.125H3.375c-.621 0-1.125.504-1.125 1.125v6.75c0 .621.504 1.125 1.125 1.125h5.063V13.5H3.375a2.25 2.25 0 01-2.25-2.25V4.5a2.25 2.25 0 012.25-2.25h11.25a2.25 2.25 0 012.25 2.25v6.75a2.25 2.25 0 01-2.25 2.25h-2.723L9.98 16.875zM4.5 5.625h9V6.75h-9V5.625zM4.5 9h5.625v1.125H4.5V9z" id="Fill"/></g></g></g></g></g></g></svg>