<?xml version="1.0" encoding="UTF-8"?>
<svg width="18px" height="18px" viewBox="0 0 18 18" version="1.1" xmlns="http://www.w3.org/2000/svg" xmlns:xlink="http://www.w3.org/1999/xlink">
    <title>598F2C2B-8049-45C5-AB5B-DA8121D34155</title>
    <g id="News-+-Events" stroke="none" stroke-width="1" fill="none" fill-rule="evenodd">
        <g id="news-+-events-landing" transform="translate(-143.000000, -3883.000000)" fill="#000000">
            <g id="Group-8" transform="translate(120.000000, 3377.000000)">
                <g id="03-modules/cards/Article/Large/01-Enabled" transform="translate(0.000000, 154.000000)">
                    <g id="news-tag" transform="translate(16.000000, 345.000000)">
                        <g id="blog-icon" transform="translate(7.000000, 7.000000)">
                            <path d="M9.97875,16.875 L9,16.3125 L11.25,12.375 L14.625,12.375 C15.2463203,12.375 15.75,11.8713203 15.75,11.25 L15.75,4.5 C15.75,3.87867966 15.2463203,3.375 14.625,3.375 L3.375,3.375 C2.75367966,3.375 2.25,3.87867966 2.25,4.5 L2.25,11.25 C2.25,11.8713203 2.75367966,12.375 3.375,12.375 L8.4375,12.375 L8.4375,13.5 L3.375,13.5 C2.13235931,13.5 1.125,12.4926407 1.125,11.25 L1.125,4.5 C1.125,3.25735931 2.13235931,2.25 3.375,2.25 L14.625,2.25 C15.8676407,2.25 16.875,3.25735931 16.875,4.5 L16.875,11.25 C16.875,12.4926407 15.8676407,13.5 14.625,13.5 L11.9025,13.5 L9.97875,16.875 Z M4.5,5.625 L13.5,5.625 L13.5,6.75 L4.5,6.75 L4.5,5.625 Z M4.5,9 L10.125,9 L10.125,10.125 L4.5,10.125 L4.5,9 Z" id="Fill"></path>
                        </g>
                    </g>
                </g>
            </g>
        </g>
    </g>
</svg>