<?xml version="1.0" encoding="UTF-8"?>
<svg width="32px" height="32px" viewBox="0 0 32 32" version="1.1" xmlns="http://www.w3.org/2000/svg" xmlns:xlink="http://www.w3.org/1999/xlink">
    <title>EE998087-BEF2-4148-910E-D300B05E4DE7</title>
    <g id="Index-Pages" stroke="none" stroke-width="1" fill="none" fill-rule="evenodd">
        <g id="Home" transform="translate(-951.000000, -3720.000000)">
            <g id="Group-3" transform="translate(119.000000, 3330.000000)">
                <g id="Group-15" transform="translate(0.000000, 154.000000)">
                    <g id="3.0-Modules/news-event-card-default-Copy-2" transform="translate(816.000000, 0.000000)">
                        <rect id="Background" fill="transparent" x="0" y="0" width="384" height="518"></rect>
                        <g id="Icon" transform="translate(16.000000, 236.000000)">
                            <circle id="Oval" fill="#FFC72C" cx="16" cy="16" r="16"></circle>
                            <g id="Planning-/-Time-/-calendar-/-32" transform="translate(9.000000, 8.000000)" fill="#000000">
                                <path d="M12.625,1.266875 L10.375,1.266875 L10.375,0.141875 L9.25,0.141875 L9.25,1.266875 L4.75,1.266875 L4.75,0.141875 L3.625,0.141875 L3.625,1.266875 L1.375,1.266875 C0.753679656,1.266875 0.25,1.77055466 0.25,2.391875 L0.25,13.641875 C0.25,14.2631953 0.753679656,14.766875 1.375,14.766875 L12.625,14.766875 C13.2463203,14.766875 13.75,14.2631953 13.75,13.641875 L13.75,2.391875 C13.75,1.77055466 13.2463203,1.266875 12.625,1.266875 Z M12.625,13.641875 L1.375,13.641875 L1.375,5.766875 L12.625,5.766875 L12.625,13.641875 Z M12.625,4.641875 L1.375,4.641875 L1.375,2.391875 L3.625,2.391875 L3.625,3.516875 L4.75,3.516875 L4.75,2.391875 L9.25,2.391875 L9.25,3.516875 L10.375,3.516875 L10.375,2.391875 L12.625,2.391875 L12.625,4.641875 Z" id="Fill"></path>
                            </g>
                        </g>
                    </g>
                </g>
            </g>
        </g>
    </g>
</svg>
