<svg width="32" height="32" viewBox="0 0 32 32" version="1.1" xmlns="http://www.w3.org/2000/svg"><g id="Index-Pages" stroke="none" stroke-width="1" fill="none" fill-rule="evenodd"><g id="Home" transform="translate(-951 -3720)"><g id="Group-3" transform="translate(119 3330)"><g id="Group-15" transform="translate(0 154)"><g id="3.0-Modules/news-event-card-default-Copy-2" transform="translate(816)"><path id="Background" fill="transparent" d="M0 0h384v518H0z"/><g id="Icon" transform="translate(16 236)"><circle id="Oval" fill="#FFC72C" cx="16" cy="16" r="16"/><g id="Planning-/-Time-/-calendar-/-32" transform="translate(9 8)" fill="#000"><path d="M12.625 1.267h-2.25V.142H9.25v1.125h-4.5V.142H3.625v1.125h-2.25C.754 1.267.25 1.77.25 2.392v11.25c0 .621.504 1.125 1.125 1.125h11.25c.621 0 1.125-.504 1.125-1.125V2.392c0-.621-.504-1.125-1.125-1.125zm0 12.375H1.375V5.767h11.25v7.875zm0-9H1.375v-2.25h2.25v1.125H4.75V2.392h4.5v1.125h1.125V2.392h2.25v2.25z" id="Fill"/></g></g></g></g></g></g></g></svg>