<svg version="1.1" id="Capa_1" xmlns="http://www.w3.org/2000/svg" x="0" y="0" viewBox="0 0 488.8 488.8" xml:space="preserve"><path d="M244.4 8C211.7 8 185 34.6 185 67.4s26.6 59.4 59.4 59.4 59.4-26.6 59.4-59.4S277.1 8 244.4 8zm0 94.3c-19.2 0-34.9-15.7-34.9-34.9s15.6-34.9 34.9-34.9 34.9 15.7 34.9 34.9-15.7 34.9-34.9 34.9zM429.4 8C396.7 8 370 34.6 370 67.4s26.6 59.4 59.4 59.4 59.4-26.6 59.4-59.4S462.1 8 429.4 8zm0 94.3c-19.2 0-34.9-15.7-34.9-34.9s15.6-34.9 34.9-34.9c19.2 0 34.9 15.7 34.9 34.9s-15.7 34.9-34.9 34.9zM59.4 8C26.7 8 0 34.6 0 67.4s26.6 59.4 59.4 59.4 59.4-26.6 59.4-59.4S92.2 8 59.4 8zm0 94.3c-19.2 0-34.9-15.7-34.9-34.9s15.7-34.9 34.9-34.9 34.9 15.7 34.9 34.9-15.6 34.9-34.9 34.9zm185 82.7c-32.7 0-59.4 26.6-59.4 59.4s26.6 59.4 59.4 59.4 59.4-26.6 59.4-59.4-26.7-59.4-59.4-59.4zm0 94.3c-19.2 0-34.9-15.7-34.9-34.9s15.6-34.9 34.9-34.9 34.9 15.7 34.9 34.9-15.7 34.9-34.9 34.9zm185-94.3c-32.7 0-59.4 26.6-59.4 59.4s26.6 59.4 59.4 59.4 59.4-26.6 59.4-59.4-26.7-59.4-59.4-59.4zm0 94.3c-19.2 0-34.9-15.7-34.9-34.9s15.6-34.9 34.9-34.9c19.2 0 34.9 15.7 34.9 34.9s-15.7 34.9-34.9 34.9zM59.4 185C26.7 185 0 211.6 0 244.4s26.6 59.4 59.4 59.4 59.4-26.6 59.4-59.4S92.2 185 59.4 185zm0 94.3c-19.2 0-34.9-15.7-34.9-34.9s15.6-34.9 34.9-34.9 34.9 15.7 34.9 34.9-15.6 34.9-34.9 34.9zm185 82.7c-32.7 0-59.4 26.6-59.4 59.4 0 32.7 26.6 59.4 59.4 59.4s59.4-26.6 59.4-59.4c0-32.7-26.7-59.4-59.4-59.4zm0 94.3c-19.2 0-34.9-15.7-34.9-34.9s15.6-34.9 34.9-34.9 34.9 15.7 34.9 34.9c0 19.3-15.7 34.9-34.9 34.9zm185-94.3c-32.7 0-59.4 26.6-59.4 59.4 0 32.7 26.6 59.4 59.4 59.4s59.4-26.6 59.4-59.4c0-32.7-26.7-59.4-59.4-59.4zm0 94.3c-19.2 0-34.9-15.7-34.9-34.9s15.6-34.9 34.9-34.9c19.2 0 34.9 15.7 34.9 34.9 0 19.3-15.7 34.9-34.9 34.9zM59.4 362C26.7 362 0 388.6 0 421.4c0 32.7 26.6 59.4 59.4 59.4s59.4-26.6 59.4-59.4c0-32.7-26.6-59.4-59.4-59.4zm0 94.3c-19.2 0-34.9-15.7-34.9-34.9s15.6-34.9 34.9-34.9 34.9 15.7 34.9 34.9c0 19.3-15.6 34.9-34.9 34.9z"/></svg>