<svg width="137" height="40" viewBox="0 0 137 40" version="1.1" xmlns="http://www.w3.org/2000/svg" xmlns:xlink="http://www.w3.org/1999/xlink"><defs><path d="M24.107 32.265c-2.408 2.614-5.473 5.12-9.38 7.49-3.899-2.37-6.958-4.876-9.375-7.49zM86.011 18.25v1.467h-1.746v.338a2.679 2.679 0 011.203 2.321c0 1.727-1.251 2.896-3.423 2.896-.38.005-.758-.04-1.127-.132-.428.15-.822.428-.822.845s.445.642 1.203.642h2.104c2.107 0 2.997.89 2.997 2.37-.003 1.788-1.27 2.695-4.35 2.695-2.796 0-3.881-.758-3.881-2.06 0-.937.563-1.447 1.465-1.644v-.18a1.31 1.31 0 01-.972-1.33c0-.887.69-1.316 1.513-1.513V24.9a2.676 2.676 0 01-1.564-2.535c0-1.743 1.237-2.93 3.409-2.93a4.14 4.14 0 011.546.263v-.229c0-.757.36-1.22 1.127-1.22h1.318zm-2.856 9.986h-2.896c-.368.19-.598.571-.594.986 0 .692.51 1.169 1.845 1.169h1.127c1.408 0 2.09-.395 2.09-1.186-.009-.592-.403-.97-1.572-.97zm-9.882-8.79c2.519 0 3.8 1.894 3.8 4.263v.676h-5.881v.282c0 1.315.805 2.253 2.253 2.253a2.506 2.506 0 002.254-1.282l1.053 1.037c-.642 1.037-1.893 1.727-3.487 1.727-2.437-.003-3.935-1.747-3.935-4.48 0-2.731 1.498-4.475 3.943-4.475zm17.56 0c2.52 0 3.804 1.894 3.804 4.263v.676h-5.888v.282c0 1.315.806 2.253 2.254 2.253a2.51 2.51 0 002.253-1.282l1.054 1.037c-.642 1.037-1.893 1.727-3.49 1.727-2.434-.003-3.93-1.747-3.93-4.48 0-2.731 1.496-4.475 3.944-4.475zm-35.622 0c2.397 0 3.944 1.745 3.944 4.477S57.605 28.4 55.21 28.4s-3.943-1.744-3.943-4.476 1.546-4.476 3.943-4.476zm-9.2-2.929c1.992 0 3.327.89 4.099 2.6l-1.564.845a2.513 2.513 0 00-2.535-1.794c-1.76 0-2.845 1.285-2.845 3.406v1.746c0 2.121 1.085 3.406 2.845 3.406 1.366 0 2.24-.789 2.651-1.91l1.499.907c-.775 1.662-2.158 2.665-4.15 2.665-2.994.011-4.82-2.08-4.82-5.93 0-3.85 1.826-5.94 4.82-5.94zm-16.53 7.736a29.918 29.918 0 01-2.205 3.98H2.206A29.918 29.918 0 010 24.254zm33.268-8.229V26.73h1.195v1.464l-1.164.009c-1.217 0-1.825-.673-1.825-1.778v-10.4h1.794zm4.426 0V26.73h1.186v1.464l-1.153.009c-1.216 0-1.828-.673-1.828-1.778v-10.4h1.795zM55.2 20.93c-1.22 0-2.045.76-2.045 2.27v1.448c0 1.515.822 2.27 2.04 2.27 1.216 0 2.042-.755 2.042-2.27h.005V23.2c0-1.513-.822-2.27-2.042-2.27zm26.837-.18c-1.051 0-1.665.475-1.665 1.447v.338c0 .972.611 1.45 1.665 1.45 1.053 0 1.662-.49 1.662-1.45v-.338c0-.972-.612-1.448-1.662-1.448zm8.786.092c-1.246.003-2.074.927-2.074 2.257v.095h3.983v-.163c0-1.318-.724-2.189-1.91-2.189zm-17.558 0c-1.234.003-2.073.927-2.073 2.257v.095h3.98v-.163c0-1.318-.724-2.189-1.907-2.189zM32.879.69v3.507H24.18v4.031h8.617a84.178 84.178 0 01-.282 3.966H24.18v4.031h7.772a37.504 37.504 0 01-.966 3.998H18.138V.69h14.74zM2.377 9.07l10.39 11.153H2.376V9.07zm102.477-6.83v1.447h-1.755v.344a2.682 2.682 0 011.202 2.321c0 1.73-1.25 2.896-3.422 2.896-.38.003-.758-.04-1.127-.13-.425.147-.822.426-.822.845 0 .42.445.643 1.202.643h2.122c2.104 0 2.994.89 2.994 2.371-.009 1.784-1.276 2.69-4.352 2.69-2.8 0-3.885-.757-3.885-2.056 0-.938.564-1.45 1.465-1.648v-.18a1.307 1.307 0 01-.972-1.315c0-.89.69-1.319 1.516-1.516v-.065a2.67 2.67 0 01-1.564-2.535c0-1.744 1.234-2.93 3.406-2.93a4.085 4.085 0 011.546.265v-.23c0-.758.364-1.218 1.127-1.218h1.319zm-2.857 9.971h-2.896a1.104 1.104 0 00-.594.986c0 .693.513 1.17 1.845 1.17h1.127c1.408 0 2.09-.395 2.09-1.184-.008-.594-.403-.972-1.572-.972zM136.357 0v12.177h-1.794v-1.414h-.081a2.445 2.445 0 01-2.403 1.612c-2.155 0-3.406-1.662-3.406-4.476s1.25-4.476 3.406-4.476a2.425 2.425 0 012.403 1.614h.081V0h1.795zM113.87 3.423c2.206 0 3.44 1.087 3.44 2.994v4.287h.904v1.465l-1.011.008c-.938 0-1.431-.591-1.547-1.43h-.081c-.33 1.07-1.251 1.628-2.502 1.628-1.763 0-2.766-1.003-2.766-2.536 0-1.69 1.268-2.569 3.662-2.569h1.546v-.738c0-1.036-.563-1.645-1.76-1.645a2.27 2.27 0 00-2.04 1.17l-1.07-.972c.563-.955 1.563-1.662 3.225-1.662zM56.521 3.41c2.518 0 3.8 1.893 3.8 4.262v.676H54.44v.282c0 1.318.806 2.254 2.254 2.254.931.023 1.8-.471 2.253-1.285L60 10.648c-.642 1.037-1.893 1.727-3.487 1.727-2.428 0-3.936-1.744-3.936-4.488 0-2.732 1.5-4.476 3.944-4.476zm6.425.209l.874 3.588.772 3.243h.05l.888-3.243 1.036-3.588h1.603l1.054 3.588.918 3.243h.05l.755-3.243.885-3.588h1.662l-2.304 8.557h-2.026L68.037 8.28l-.69-2.403h-.023l-.676 2.403-1.127 3.898H63.55L61.203 3.62h1.743zM108.2 0v10.704h1.186v1.465l-1.152.008c-1.217 0-1.826-.673-1.826-1.777V0h1.792zm15.893 3.414c1.744 0 2.78 1.22 2.78 3.324v5.44h-1.803v-5.2c0-1.333-.51-2.009-1.61-2.009-.939 0-1.86.479-1.86 1.482v5.726h-1.797V3.62h1.794v1.408h.093a2.386 2.386 0 012.403-1.614zm-31.468 0c1.744 0 2.78 1.22 2.78 3.324v5.44h-1.794v-5.2c0-1.333-.51-2.009-1.611-2.009-.938 0-1.86.479-1.86 1.482v5.726h-1.785V3.62h1.786v1.408h.082a2.389 2.389 0 012.402-1.614zM86.248.69v1.648h-5.496V5.38h4.986v1.662h-4.986v3.49h5.496v1.645h-7.355V.69h7.355zm-42.485 0l3.764 6.352 1.267 2.437h.048V.69h1.778v11.487h-2.074L44.79 5.825 43.527 3.38h-.048v8.797H41.69V.69h2.073zm-31.65 0v10.606L2.214.69h9.899zm103.4 7.718H114c-1.25 0-1.86.412-1.86 1.153v.298c0 .758.564 1.152 1.449 1.152 1.096-.003 1.918-.526 1.918-1.366l.006-.003V8.408zm17.11-3.439c-1.234 0-2.057.873-2.057 2.189v1.481c0 1.319.823 2.19 2.057 2.19 1.084 0 1.94-.592 1.94-1.466v-2.93c0-.87-.845-1.464-1.94-1.464zm-31.75-.245c-1.053 0-1.662.476-1.662 1.448v.33c0 .968.609 1.447 1.662 1.447 1.054 0 1.662-.479 1.662-1.448v-.33c0-.971-.608-1.447-1.662-1.447zm-44.36.082c-1.237.017-2.074.938-2.074 2.253v.099h3.98v-.164c0-1.318-.723-2.188-1.906-2.188z" id="path-1"/></defs><g id="Virtual-Tour" stroke="none" stroke-width="1" fill="none" fill-rule="evenodd"><g id="Landing-Page---Screen-1" transform="translate(-32 -20)"><g id="01-Elements/01-Brand-Elements/logo/primary-solid" transform="translate(32 20)"><mask id="mask-2" fill="#fff"><use xlink:href="#path-1"/></mask><use id="Mask" fill="#FFF" fill-rule="nonzero" xlink:href="#path-1"/><path id="Rectangle" fill="#FFF" mask="url(#mask-2)" d="M0 0h136.62v40H0z"/></g></g></g></svg>