<svg width="220" height="262" viewBox="0 0 220 262" fill="none" xmlns="http://www.w3.org/2000/svg">
<path opacity="0.2" d="M161.306 211.273C145.19 228.765 124.683 245.54 98.5401 261.391C72.4537 245.54 51.9842 228.765 35.8122 211.273H161.306ZM197.269 157.668C193.032 166.907 188.099 175.811 182.51 184.301H14.7584C9.16994 175.811 4.23621 166.907 0 157.668H197.269ZM220 0V23.4664H161.796V50.4387H219.453C219.001 59.3163 218.436 68.1751 217.569 76.9774H161.796V103.95H213.799C212.135 112.977 209.976 121.905 207.334 130.696H121.366V0H220ZM15.9082 56.0744L85.4215 130.696H15.9082V56.0744ZM81.0487 0V70.9647L14.8149 0H81.0487Z" fill="white"/>
</svg>
