<svg width="220" height="262" viewBox="0 0 220 262" fill="none" xmlns="http://www.w3.org/2000/svg"><path opacity=".2" d="M161.306 211.273c-16.116 17.492-36.623 34.267-62.766 50.118-26.086-15.851-46.556-32.626-62.728-50.118h125.494zm35.963-53.605a200.242 200.242 0 01-14.759 26.633H14.758A200.21 200.21 0 010 157.668h197.269zM220 0v23.466h-58.204V50.44h57.657c-.452 8.877-1.017 17.736-1.884 26.538h-55.773v26.973h52.003a251.047 251.047 0 01-6.465 26.746h-85.968V0H220zM15.908 56.074l69.513 74.622H15.908V56.074zM81.048 0v70.965L14.816 0H81.05z" fill="#fff"/></svg>