<?xml version="1.0" encoding="UTF-8"?>
<svg width="137px" height="40px" viewBox="0 0 137 40" version="1.1" xmlns="http://www.w3.org/2000/svg" xmlns:xlink="http://www.w3.org/1999/xlink">
    <title>718F92B4-1EC9-4DBA-A83B-0B2FCBFA0B47</title>
    <defs>
        <path d="M24.1070423,32.2647887 C21.6985915,34.8788732 18.6338028,37.3859155 14.7267606,39.7549296 C10.828169,37.3859155 7.76901408,34.8788732 5.35211268,32.2647887 L5.35211268,32.2647887 Z M86.0112676,18.2507042 L86.0112676,19.7183099 L84.2647887,19.7183099 L84.2647887,20.056338 C85.0416633,20.5686167 85.4970307,21.4473585 85.4676056,22.3774648 C85.4676056,24.1042254 84.2169014,25.2732394 82.0450704,25.2732394 C81.6653654,25.2775094 81.2866833,25.2330142 80.9183099,25.1408451 C80.4901408,25.2901408 80.0957746,25.5690141 80.0957746,25.9859155 C80.0957746,26.4028169 80.5408451,26.628169 81.2985915,26.628169 L83.4028169,26.628169 C85.5098592,26.628169 86.4,27.5183099 86.4,28.9971831 C86.3971831,30.7859155 85.1295775,31.6929577 82.0507042,31.6929577 C79.2535211,31.6929577 78.1690141,30.9352113 78.1690141,29.6338028 C78.1690141,28.6957746 78.7323944,28.1859155 79.6338028,27.9887324 L79.6338028,27.8084507 C79.0369152,27.6497968 78.631949,27.0957561 78.6619718,26.4788732 C78.6619718,25.5915493 79.3521127,25.1633803 80.1746479,24.9661972 L80.1746479,24.9014085 C79.1879289,24.4512243 78.5705044,23.4499953 78.6112676,22.3661972 C78.6112676,20.6225352 79.8478873,19.4366197 82.0197183,19.4366197 C82.5471935,19.4246228 83.0721015,19.5135417 83.5661972,19.6985915 L83.5661972,19.4704225 C83.5661972,18.7126761 83.9267606,18.2507042 84.6929577,18.2507042 L86.0112676,18.2507042 Z M83.1549296,28.2366197 L80.2591549,28.2366197 C79.8909184,28.4268302 79.6610728,28.8080906 79.6647443,29.2225352 C79.6647443,29.915493 80.1746479,30.3915493 81.5098592,30.3915493 L82.6366197,30.3915493 C84.0450704,30.3915493 84.7267606,29.9971831 84.7267606,29.2056338 C84.7183099,28.6140845 84.3239437,28.2366197 83.1549296,28.2366197 Z M73.2732394,19.4478873 C75.7915493,19.4478873 77.0732394,21.3408451 77.0732394,23.7098592 L77.0732394,24.3859155 L71.1915493,24.3859155 L71.1915493,24.6676056 C71.1915493,25.9830986 71.9971831,26.9211268 73.4450704,26.9211268 C74.3759862,26.9455877 75.2437577,26.4520427 75.6985915,25.6394366 L76.7521127,26.6760563 C76.1098592,27.7126761 74.8591549,28.4028169 73.2647887,28.4028169 C70.828169,28.4 69.3295775,26.656338 69.3295775,23.9239437 C69.3295775,21.1915493 70.828169,19.4478873 73.2732394,19.4478873 Z M90.8338028,19.4478873 C93.3521127,19.4478873 94.6366197,21.3408451 94.6366197,23.7098592 L94.6366197,24.3859155 L88.7492958,24.3859155 L88.7492958,24.6676056 C88.7492958,25.9830986 89.5549296,26.9211268 91.0028169,26.9211268 C91.9335734,26.9449522 92.8010394,26.451581 93.256338,25.6394366 L94.3098592,26.6760563 C93.6676056,27.7126761 92.4169014,28.4028169 90.8197183,28.4028169 C88.3859155,28.4 86.8901408,26.656338 86.8901408,23.9239437 C86.8901408,21.1915493 88.3859155,19.4478873 90.8338028,19.4478873 Z M55.2112676,19.4478873 C57.6084507,19.4478873 59.1549296,21.1915493 59.1549296,23.9239437 C59.1549296,26.656338 57.6056338,28.4 55.2112676,28.4 C52.8169014,28.4 51.2676056,26.656338 51.2676056,23.9239437 C51.2676056,21.1915493 52.8140845,19.4478873 55.2112676,19.4478873 Z M46.0112676,16.5183099 C48.0028169,16.5183099 49.3380282,17.4084507 50.1098592,19.1183099 L48.5464789,19.9633803 C48.216536,18.8520323 47.1690902,18.1106734 46.0112676,18.1690141 C44.2507042,18.1690141 43.1661972,19.4535211 43.1661972,21.5746479 L43.1661972,23.3211268 C43.1661972,25.4422535 44.2507042,26.7267606 46.0112676,26.7267606 C47.3774648,26.7267606 48.2507042,25.9380282 48.6619718,24.8169014 L50.1605634,25.7239437 C49.3859155,27.3859155 48.0028169,28.3887777 46.0112676,28.3887777 C43.0169014,28.4 41.1915493,26.3098592 41.1915493,22.4591549 C41.1915493,18.6084507 43.0169014,16.5183099 46.0112676,16.5183099 Z M29.4816901,24.2535211 C28.8485908,25.6343513 28.1112473,26.9649597 27.2760563,28.2338028 L27.2760563,28.2338028 L2.2056338,28.2338028 C1.37044285,26.9649597 0.633099357,25.6343513 -4.35582712e-14,24.2535211 L-4.35582712e-14,24.2535211 Z M62.7492958,16.0253521 L62.7492958,26.7295775 L63.943662,26.7295775 L63.943662,28.1943662 L62.7802817,28.2028169 C61.5633803,28.2028169 60.9549296,27.5295775 60.9549296,26.4253521 L60.9549296,16.0253521 L62.7492958,16.0253521 Z M67.1746479,16.0253521 L67.1746479,26.7295775 L68.3605634,26.7295775 L68.3605634,28.1943662 L67.2084507,28.2028169 C65.9915493,28.2028169 65.3802817,27.5295775 65.3802817,26.4253521 L65.3802817,16.0253521 L67.1746479,16.0253521 Z M55.2,20.9295775 C53.9802817,20.9295775 53.1549296,21.6901408 53.1549296,23.2 L53.1549296,24.6478873 C53.1549296,26.1633803 53.9774648,26.9183099 55.1943662,26.9183099 C56.4112676,26.9183099 57.2366197,26.1633803 57.2366197,24.6478873 L57.2422535,24.6478873 L57.2422535,23.2 C57.2422535,21.6873239 56.4197183,20.9295775 55.2,20.9295775 Z M82.0366197,20.7492958 C80.9859155,20.7492958 80.371831,21.2253521 80.371831,22.1971831 L80.371831,22.5352113 C80.371831,23.5070423 80.9830986,23.9859155 82.0366197,23.9859155 C83.0901408,23.9859155 83.6985915,23.4957746 83.6985915,22.5352113 L83.6985915,22.1971831 C83.6985915,21.2253521 83.0873239,20.7492958 82.0366197,20.7492958 Z M90.8225352,20.8422535 C89.5774648,20.8450704 88.7492958,21.7690141 88.7492958,23.0985915 L88.7492958,23.1943662 L92.7323944,23.1943662 L92.7323944,23.0309859 C92.7323944,21.7126761 92.0084507,20.8422535 90.8225352,20.8422535 Z M73.2647887,20.8422535 C72.0309859,20.8450704 71.1915493,21.7690141 71.1915493,23.0985915 L71.1915493,23.1943662 L75.171831,23.1943662 L75.171831,23.0309859 C75.171831,21.7126761 74.4478873,20.8422535 73.2647887,20.8422535 Z M32.8788732,0.690140845 L32.8788732,4.1971831 L24.1802817,4.1971831 L24.1802817,8.22816901 L32.7971831,8.22816901 C32.7295775,9.55492958 32.6450704,10.8788732 32.515493,12.1943662 L32.515493,12.1943662 L24.1802817,12.1943662 L24.1802817,16.2253521 L31.9521127,16.2253521 C31.7033921,17.5744141 31.3808417,18.9088139 30.9859155,20.2225352 L30.9859155,20.2225352 L18.1380282,20.2225352 L18.1380282,0.690140845 L32.8788732,0.690140845 L32.8788732,0.690140845 Z M2.37746479,9.07042254 L12.7661972,20.2225352 L2.37746479,20.2225352 L2.37746479,9.07042254 Z M104.853521,2.23943662 L104.853521,3.68732394 L103.098592,3.68732394 L103.098592,4.03098592 C103.875047,4.5436422 104.330283,5.42213145 104.301408,6.35211268 C104.301408,8.08169014 103.050704,9.24788732 100.878873,9.24788732 C100.499376,9.25139812 100.120906,9.20787407 99.7521127,9.11830986 C99.3267606,9.26478873 98.9295775,9.54366197 98.9295775,9.96338028 C98.9295775,10.3830986 99.3746479,10.6056338 100.132394,10.6056338 L102.253521,10.6056338 C104.357746,10.6056338 105.247887,11.4957746 105.247887,12.9774648 C105.239437,14.7605634 103.971831,15.6676056 100.895775,15.6676056 C98.0957746,15.6676056 97.0112676,14.9098592 97.0112676,13.6112676 C97.0112676,12.6732394 97.5746479,12.1605634 98.4760563,11.9633803 L98.4760563,11.7830986 C97.8838874,11.6264892 97.479906,11.0796507 97.5042254,10.4676056 C97.5042254,9.57746479 98.1943662,9.14929577 99.0197183,8.95211268 L99.0197183,8.88732394 C98.031939,8.43834207 97.4140244,7.43631853 97.456338,6.35211268 C97.456338,4.6084507 98.6901408,3.42253521 100.861972,3.42253521 C101.389733,3.41003016 101.914913,3.49995178 102.408451,3.68732394 L102.408451,3.45633803 C102.408451,2.69859155 102.771831,2.23943662 103.535211,2.23943662 L104.853521,2.23943662 Z M101.997183,12.2112676 L99.1014085,12.2112676 C98.7340952,12.4024625 98.504628,12.7830953 98.5070234,13.1971831 C98.5070234,13.8901408 99.0197183,14.3661972 100.352113,14.3661972 L101.478873,14.3661972 C102.887324,14.3661972 103.569014,13.971831 103.569014,13.1830986 C103.560563,12.5887324 103.166197,12.2112676 101.997183,12.2112676 Z M136.357746,1.77635684e-15 L136.357746,12.1774648 L134.56338,12.1774648 L134.56338,10.7633803 L134.48169,10.7633803 C134.118511,11.767526 133.145721,12.4198543 132.078873,12.3746479 C129.923944,12.3746479 128.673239,10.7126761 128.673239,7.89859155 C128.673239,5.08450704 129.923944,3.42253521 132.078873,3.42253521 C133.148276,3.37124747 134.124798,4.02722308 134.48169,5.03661972 L134.56338,5.03661972 L134.56338,1.77635684e-15 L136.357746,1.77635684e-15 Z M113.870423,3.42253521 C116.076056,3.42253521 117.309859,4.50985915 117.309859,6.41690141 L117.309859,10.7042254 L118.214085,10.7042254 L118.214085,12.1690141 L117.202817,12.1774648 C116.264789,12.1774648 115.771831,11.5859155 115.656338,10.7464789 L115.574648,10.7464789 C115.24507,11.8169014 114.323944,12.3746479 113.073239,12.3746479 C111.309859,12.3746479 110.307042,11.371831 110.307042,9.83943662 C110.307042,8.14929577 111.574648,7.27042254 113.969014,7.27042254 L115.515493,7.27042254 L115.515493,6.53239437 C115.515493,5.49577465 114.952113,4.88732394 113.75493,4.88732394 C112.910602,4.86734526 112.124964,5.31767659 111.715493,6.05633803 L110.64507,5.08450704 C111.208451,4.12957746 112.208451,3.42253521 113.870423,3.42253521 Z M56.5211268,3.41126761 C59.0394366,3.41126761 60.3211268,5.30422535 60.3211268,7.67323944 L60.3211268,8.34929577 L54.4394366,8.34929577 L54.4394366,8.63098592 C54.4394366,9.94929577 55.2450704,10.884507 56.6929577,10.884507 C57.6244733,10.9084066 58.4923913,10.4136933 58.9464789,9.6 L60,10.6478873 C59.3577465,11.684507 58.1070423,12.3746479 56.5126761,12.3746479 C54.084507,12.3746479 52.5774648,10.6309859 52.5774648,7.88732394 C52.5774648,5.15492958 54.0760563,3.41126761 56.5211268,3.41126761 Z M62.9464789,3.61971831 L63.8197183,7.2084507 L64.5915493,10.4507042 L64.6422535,10.4507042 L65.5295775,7.2084507 L66.5661972,3.61971831 L68.1690141,3.61971831 L69.2225352,7.2084507 L70.1408451,10.4507042 L70.1915493,10.4507042 L70.9464789,7.2084507 L71.8309859,3.61971831 L73.4929577,3.61971831 L71.1887324,12.1774648 L69.1633803,12.1774648 L68.0366197,8.27887324 L67.3464789,5.87605634 L67.3239437,5.87605634 L66.6478873,8.27887324 L65.5211268,12.1774648 L63.5492958,12.1774648 L61.2028169,3.61971831 L62.9464789,3.61971831 Z M108.2,2.66453526e-15 L108.2,10.7042254 L109.385915,10.7042254 L109.385915,12.1690141 L108.233803,12.1774648 C107.016901,12.1774648 106.408451,11.5042254 106.408451,10.4 L106.408451,2.66453526e-15 L108.2,2.66453526e-15 Z M124.092958,3.41408451 C125.83662,3.41408451 126.873239,4.63380282 126.873239,6.73802817 L126.873239,12.1774648 L125.070423,12.1774648 L125.070423,6.97746479 C125.070423,5.64507042 124.560563,4.96901408 123.459155,4.96901408 C122.521127,4.96901408 121.6,5.44788732 121.6,6.45070423 L121.6,12.1774648 L119.802817,12.1774648 L119.802817,3.61971831 L121.597183,3.61971831 L121.597183,5.02816901 L121.690141,5.02816901 C122.035966,4.01024603 123.019846,3.34932802 124.092958,3.41408451 Z M92.6253521,3.41408451 C94.3690141,3.41408451 95.4056338,4.63380282 95.4056338,6.73802817 L95.4056338,12.1774648 L93.6112676,12.1774648 L93.6112676,6.97746479 C93.6112676,5.64507042 93.1014085,4.96901408 92,4.96901408 C91.0619718,4.96901408 90.1408451,5.44788732 90.1408451,6.45070423 L90.1408451,12.1774648 L88.3549296,12.1774648 L88.3549296,3.61971831 L90.1408451,3.61971831 L90.1408451,5.02816901 L90.2225352,5.02816901 C90.5691708,4.01086656 91.5525084,3.35031266 92.6253521,3.41408451 Z M86.2478873,0.690140845 L86.2478873,2.33802817 L80.7521127,2.33802817 L80.7521127,5.38028169 L85.7380282,5.38028169 L85.7380282,7.04225352 L80.7521127,7.04225352 L80.7521127,10.5323944 L86.2478873,10.5323944 L86.2478873,12.1774648 L78.8929577,12.1774648 L78.8929577,0.690140845 L86.2478873,0.690140845 Z M43.7633803,0.690140845 L47.5267606,7.04225352 L48.7943662,9.47887324 L48.8422535,9.47887324 L48.8422535,0.690140845 L50.6197183,0.690140845 L50.6197183,12.1774648 L48.5464789,12.1774648 L44.7887324,5.82535211 L43.5267606,3.38028169 L43.4788732,3.38028169 L43.4788732,12.1774648 L41.6901408,12.1774648 L41.6901408,0.690140845 L43.7633803,0.690140845 Z M12.1126761,0.690140845 L12.1126761,11.2957746 L2.21408451,0.690140845 L12.1126761,0.690140845 Z M115.512676,8.4084507 L114,8.4084507 C112.749296,8.4084507 112.140845,8.81971831 112.140845,9.56056338 L112.140845,9.85915493 C112.140845,10.6169014 112.704225,11.0112676 113.588732,11.0112676 C114.684507,11.0084507 115.507042,10.484507 115.507042,9.64507042 L115.512676,9.64225352 L115.512676,8.4084507 Z M132.622535,4.96901408 C131.388732,4.96901408 130.566197,5.84225352 130.566197,7.15774648 L130.566197,8.63943662 C130.566197,9.95774648 131.388732,10.828169 132.622535,10.828169 C133.707042,10.828169 134.56338,10.2366197 134.56338,9.36338028 L134.56338,6.43380282 C134.56338,5.56338028 133.71831,4.96901408 132.622535,4.96901408 Z M100.873239,4.72394366 C99.8197183,4.72394366 99.2112676,5.2 99.2112676,6.17183099 L99.2112676,6.50140845 C99.2112676,7.47042254 99.8197183,7.94929577 100.873239,7.94929577 C101.926761,7.94929577 102.535211,7.47042254 102.535211,6.50140845 L102.535211,6.17183099 C102.535211,5.2 101.926761,4.72394366 100.873239,4.72394366 Z M56.5126761,4.8056338 C55.2760563,4.82253521 54.4394366,5.74366197 54.4394366,7.05915493 L54.4394366,7.15774648 L58.4197183,7.15774648 L58.4197183,6.9943662 C58.4197183,5.67605634 57.6957746,4.8056338 56.5126761,4.8056338 Z" id="path-1"></path>
    </defs>
    <g id="Virtual-Tour" stroke="none" stroke-width="1" fill="none" fill-rule="evenodd">
        <g id="Landing-Page---Screen-1" transform="translate(-32.000000, -20.000000)">
            <g id="01-Elements/01-Brand-Elements/logo/primary-solid" transform="translate(32.000000, 20.000000)">
                <mask id="mask-2" fill="white">
                    <use xlink:href="#path-1"></use>
                </mask>
                <use id="Mask" fill="#FFFFFF" fill-rule="nonzero" xlink:href="#path-1"></use>
                <rect id="Rectangle" fill="#FFFFFF" mask="url(#mask-2)" x="0" y="0" width="136.619718" height="40"></rect>
            </g>
        </g>
    </g>
</svg>