<?xml version="1.0" encoding="utf-8"?>
<!-- Generator: Adobe Illustrator 19.2.1, SVG Export Plug-In . SVG Version: 6.00 Build 0)  -->
<svg version="1.1" id="Слой_1" xmlns="http://www.w3.org/2000/svg" xmlns:xlink="http://www.w3.org/1999/xlink" x="0px" y="0px"
	 viewBox="0 0 371.93396 384.0000305" style="enable-background:new 0 0 371.93396 384.0000305;" xml:space="preserve">
<g>
	<path style="fill:#C1353B;" d="M363.9339905,60.3280029h-64.3909912V8c0-4.4179993-3.5820007-8-8-8
		s-8.0000305,3.5820007-8.0000305,8v52.3280029H88.394989V8c0-4.4179993-3.5830078-8-8.0000153-8
		c-4.417984,0-7.9999847,3.5820007-7.9999847,8v52.3280029H8c-4.4179993,0-8,3.5820007-8,8.0000305V376
		c0,4.4179993,3.5820007,8.0000305,8,8.0000305h355.9339905c4.4210205,0,7.9999695-3.5820313,7.9999695-8.0000305V68.3280334
		C371.93396,63.9100037,368.3519897,60.3280029,363.9339905,60.3280029L363.9339905,60.3280029z M355.93396,368.0000305H15.9999695
		V166.8200226H355.93396V368.0000305z M355.93396,150.8200226H15.9999695V76.3280334H72.394989v28.1950073
		c0,4.4179688,3.5820007,8,7.9999847,8c4.4170074,0,8.0000153-3.5820313,8.0000153-8V76.3280334h195.1479797v28.1950073
		c0,4.4179688,3.5820313,8,8.0000305,8s8-3.5820313,8-8V76.3280334H355.93396V150.8200226z M355.93396,150.8200226"/>
</g>
</svg>
