<svg width="32" height="32" viewBox="0 0 32 32" version="1.1" xmlns="http://www.w3.org/2000/svg"><g id="Index-Pages" stroke="none" stroke-width="1" fill="none" fill-rule="evenodd"><g id="Home" transform="translate(-135 -3720)"><g id="Group-3" transform="translate(119 3330)"><g id="3.0-Modules/news-event-card-default" transform="translate(0 154)"><path id="Background" fill="transparent" d="M0 0h384v518H0z"/><g id="Icon" transform="translate(16 236)"><circle id="Oval" fill="#B7EDBE" cx="16" cy="16" r="16"/><g id="Planning-/-Time-/-calendar-/-32" transform="translate(10 11)" fill="#000"><path d="M11 0v1.085L.82 2.935a1 1 0 00-.82 1v2.17a1 1 0 00.82 1L2 7.28V9a1 1 0 001 1h4a1 1 0 001-1v-.63l3 .545V10h1V0h-1zM7 9H3V7.465l4 .725V9zM1 6.085v-2.17L11 2.1v5.8L1 6.085z" id="Fill"/></g></g></g></g></g></g></svg>