<?xml version="1.0" encoding="UTF-8"?>
<svg width="32px" height="32px" viewBox="0 0 32 32" version="1.1" xmlns="http://www.w3.org/2000/svg" xmlns:xlink="http://www.w3.org/1999/xlink">
    <title>1F05B63B-7479-4E8F-B4B2-76711DE73E37</title>
    <g id="01-Elements-and-Styleguide" stroke="none" stroke-width="1" fill="none" fill-rule="evenodd">
        <g id="Icons" transform="translate(-936.000000, -309.000000)">
            <g id="special-/-callout-quote" transform="translate(936.000000, 309.000000)">
                <rect id="Background" x="0" y="0" width="32" height="32"></rect>
                <path d="M20.8415842,10 C21.7425743,10 22.4414191,9.72813239 22.9381188,9.18439716 C23.4348185,8.64066194 23.6831683,7.9787234 23.6831683,7.19858156 L23.6831683,7.19858156 L23.6831683,7.0212766 C23.6831683,6.24113475 23.4405941,5.61465721 22.9554455,5.14184397 C22.470297,4.66903073 21.869637,4.43262411 21.1534653,4.43262411 L21.1534653,4.43262411 L21.0841584,4.43262411 C21.5231023,2.89598109 22.5742574,1.41843972 24.2376238,0 L24.2376238,0 L21.5,0 C21.0379538,0.425531915 20.5990099,0.892434988 20.1831683,1.40070922 C19.7673267,1.90898345 19.3976898,2.45271868 19.0742574,3.03191489 C18.7508251,3.61111111 18.4909241,4.20803783 18.2945545,4.82269504 C18.0981848,5.43735225 18,6.05200946 18,6.66666667 L18,6.66666667 L18,7.12765957 C18,7.93144208 18.2425743,8.61111111 18.7277228,9.16666667 C19.2128713,9.72222222 19.9174917,10 20.8415842,10 Z M28.6039604,10 C29.5049505,10 30.2037954,9.72813239 30.700495,9.18439716 C31.1971947,8.64066194 31.4455446,7.9787234 31.4455446,7.19858156 L31.4455446,7.19858156 L31.4455446,7.0212766 C31.4455446,6.24113475 31.2029703,5.61465721 30.7178218,5.14184397 C30.2326733,4.66903073 29.6320132,4.43262411 28.9158416,4.43262411 L28.9158416,4.43262411 L28.8465347,4.43262411 C29.2854785,2.89598109 30.3366337,1.41843972 32,0 L32,0 L29.2623762,0 C28.80033,0.425531915 28.3613861,0.892434988 27.9455446,1.40070922 C27.529703,1.90898345 27.160066,2.45271868 26.8366337,3.03191489 C26.5132013,3.61111111 26.2533003,4.20803783 26.0569307,4.82269504 C25.8605611,5.43735225 25.7623762,6.05200946 25.7623762,6.66666667 L25.7623762,6.66666667 L25.7623762,7.12765957 C25.7623762,7.93144208 26.0049505,8.61111111 26.490099,9.16666667 C26.9752475,9.72222222 27.679868,10 28.6039604,10 Z" id="“" fill="#0033A0" fill-rule="nonzero"></path>
            </g>
        </g>
    </g>
</svg>