<svg width="32" height="32" viewBox="0 0 32 32" version="1.1" xmlns="http://www.w3.org/2000/svg"><g id="01-Elements-and-Styleguide" stroke="none" stroke-width="1" fill="none" fill-rule="evenodd"><g id="Icons" transform="translate(-936 -309)"><g id="special-/-callout-quote" transform="translate(936 309)"><path id="Background" d="M0 0h32v32H0z"/><path d="M20.842 10c.9 0 1.6-.272 2.096-.816.497-.543.745-1.205.745-1.985V7.02c0-.78-.242-1.406-.728-1.88-.485-.472-1.085-.708-1.802-.708h-.069c.44-1.537 1.49-3.015 3.154-4.433H21.5c-.462.426-.901.892-1.317 1.4a11.173 11.173 0 00-1.109 1.632 9.757 9.757 0 00-.78 1.79A6.03 6.03 0 0018 6.668v.46c0 .804.243 1.484.728 2.04.485.555 1.19.833 2.114.833zm7.762 0c.901 0 1.6-.272 2.096-.816.497-.543.746-1.205.746-1.985V7.02c0-.78-.243-1.406-.728-1.88-.485-.472-1.086-.708-1.802-.708h-.07C29.287 2.896 30.337 1.418 32 0h-2.738c-.462.426-.9.892-1.316 1.4a11.173 11.173 0 00-1.11 1.632 9.757 9.757 0 00-.78 1.79 6.03 6.03 0 00-.294 1.845v.46c0 .804.243 1.484.728 2.04.485.555 1.19.833 2.114.833z" id="“" fill="#0033A0" fill-rule="nonzero"/></g></g></g></svg>