<?xml version="1.0" encoding="UTF-8"?>
<svg width="18px" height="18px" viewBox="0 0 18 18" version="1.1" xmlns="http://www.w3.org/2000/svg" xmlns:xlink="http://www.w3.org/1999/xlink">
    <title>ED2A93D7-8062-4A45-98C4-E3768E6B6954</title>
    <g id="News-+-Events" stroke="none" stroke-width="1" fill="none" fill-rule="evenodd">
        <g id="news-+-events-landing" transform="translate(-143.000000, -5606.000000)" fill="#000000">
            <g id="Group-6" transform="translate(120.000000, 4806.000000)">
                <g id="03-Modules/News-+-Events/research-card/01-enabled-Copy-3" transform="translate(0.000000, 777.000000)">
                    <g id="news-tag" transform="translate(16.000000, 16.000000)">
                        <g id="research-icon" transform="translate(7.000000, 7.000000)">
                            <path d="M5.625,10.125 L10.125,10.125 L10.125,11.25 L5.625,11.25 L5.625,10.125 Z M5.625,7.3125 L12.375,7.3125 L12.375,8.4375 L5.625,8.4375 L5.625,7.3125 Z M5.625,12.9375 L8.4375,12.9375 L8.4375,14.0625 L5.625,14.0625 L5.625,12.9375 Z M14.0625,2.8125 L12.375,2.8125 L12.375,2.25 C12.375,1.62867966 11.8713203,1.125 11.25,1.125 L6.75,1.125 C6.12867966,1.125 5.625,1.62867966 5.625,2.25 L5.625,2.8125 L3.9375,2.8125 C3.31617966,2.8125 2.8125,3.31617966 2.8125,3.9375 L2.8125,15.75 C2.8125,16.3713203 3.31617966,16.875 3.9375,16.875 L14.0625,16.875 C14.6838203,16.875 15.1875,16.3713203 15.1875,15.75 L15.1875,3.9375 C15.1875,3.31617966 14.6838203,2.8125 14.0625,2.8125 Z M6.75,2.25 L11.25,2.25 L11.25,4.5 L6.75,4.5 L6.75,2.25 Z M14.0625,15.75 L3.9375,15.75 L3.9375,3.9375 L5.625,3.9375 L5.625,5.625 L12.375,5.625 L12.375,3.9375 L14.0625,3.9375 L14.0625,15.75 Z" id="Fill"></path>
                        </g>
                    </g>
                </g>
            </g>
        </g>
    </g>
</svg>