<svg width="18" height="18" viewBox="0 0 18 18" version="1.1" xmlns="http://www.w3.org/2000/svg"><g id="News-+-Events" stroke="none" stroke-width="1" fill="none" fill-rule="evenodd"><g id="news-+-events-landing" transform="translate(-143 -5606)" fill="#000"><g id="Group-6" transform="translate(120 4806)"><g id="03-Modules/News-+-Events/research-card/01-enabled-Copy-3" transform="translate(0 777)"><g id="news-tag" transform="translate(16 16)"><g id="research-icon" transform="translate(7 7)"><path d="M5.625 10.125h4.5v1.125h-4.5v-1.125zm0-2.813h6.75v1.125h-6.75V7.313zm0 5.625h2.813v1.126H5.624v-1.126zm8.438-10.124h-1.688V2.25c0-.621-.504-1.125-1.125-1.125h-4.5c-.621 0-1.125.504-1.125 1.125v.563H3.937c-.62 0-1.124.503-1.124 1.124V15.75c0 .621.503 1.125 1.124 1.125h10.126c.62 0 1.124-.504 1.124-1.125V3.937c0-.62-.503-1.124-1.124-1.124zM6.75 2.25h4.5V4.5h-4.5V2.25zm7.313 13.5H3.937V3.937h1.688v1.688h6.75V3.937h1.688V15.75z" id="Fill"/></g></g></g></g></g></g></svg>