<?xml version="1.0" encoding="UTF-8"?>
<svg width="12px" height="11px" viewBox="0 0 12 11" version="1.1" xmlns="http://www.w3.org/2000/svg" xmlns:xlink="http://www.w3.org/1999/xlink">
    <title>4B0C2A0E-B8D1-4F1D-A219-2BBDABFC7CF1</title>
    <g id="Virtual-Tour" stroke="none" stroke-width="1" fill="none" fill-rule="evenodd">
        <g id="Landing-Page---Screen-1" transform="translate(-115.000000, -785.000000)" fill="#FFFFFF">
            <g id="return-home" transform="translate(0.000000, 771.000000)">
                <g id="Group-10" transform="translate(16.000000, 10.000000)">
                    <g id="Actions-/-Navigation-/-arrow--up-/-24" transform="translate(105.000000, 9.750000) scale(-1, 1) translate(-105.000000, -9.750000) translate(99.000000, 4.500000)">
                        <path d="M4,2.5 L10.09255,2.5 L8.29885,0.70705 L9,0 L12,3 L9,6 L8.29885,5.2927 L10.09105,3.5 L4,3.5 C2.34314575,3.5 1,4.84314575 1,6.5 C1,8.15685425 2.34314575,9.5 4,9.5 L8,9.5 L8,10.5 L4,10.5 C1.790861,10.5 0,8.709139 0,6.5 C0,4.290861 1.790861,2.5 4,2.5 Z" id="Fill"></path>
                    </g>
                </g>
            </g>
        </g>
    </g>
</svg>