<?xml version="1.0" encoding="UTF-8"?>
<svg width="22px" height="22px" viewBox="0 0 22 22" version="1.1" xmlns="http://www.w3.org/2000/svg" xmlns:xlink="http://www.w3.org/1999/xlink">
    <title>skills</title>
    <g id="Detail-Pages" stroke="none" stroke-width="1" fill="none" fill-rule="evenodd">
        <g id="Program-Detail" transform="translate(-1117.000000, -798.000000)" fill="#B0E8FE">
            <g id="Group-21" transform="translate(120.000000, 741.000000)">
                <g id="Group" transform="translate(0.000000, 48.000000)">
                    <g id="Group-10-Copy-2" transform="translate(988.000000, 0.000000)">
                        <g id="Tools-/-Instruments-/-tool-box-/-24" transform="translate(8.000000, 8.000000)">
                            <path d="M6,3 L6,6 L3,6 L3,3 L6,3 L6,3 Z M1.5,1.5 L1.5,7.5 L7.5,7.5 L7.5,1.5 L1.5,1.5 Z M13.5,5.25 L13.5,8.25 L10.5,8.25 L10.5,5.25 L13.5,5.25 L13.5,5.25 Z M9,3.75 L9,9.75 L15,9.75 L15,3.75 L9,3.75 Z M6,12 L6,15 L3,15 L3,12 L6,12 L6,12 Z M1.5,10.5 L1.5,16.5 L7.5,16.5 L7.5,10.5 L1.5,10.5 Z M16.5,7.5 L16.5,12 L12,12 L12,16.5 L7.5,16.5 L7.5,22.5 L22.5,22.5 L22.5,7.5 L16.5,7.5 Z M13.5,13.5 L16.5,13.5 L16.5,16.5 L13.5,16.5 L13.5,13.5 Z M12,21 L9,21 L9,18 L12,18 L12,21 Z M16.5,21 L13.5,21 L13.5,18 L16.5,18 L16.5,21 Z M21,21 L18,21 L18,18 L21,18 L21,21 Z M21,16.5 L18,16.5 L18,13.5 L21,13.5 L21,16.5 Z M18,12 L18,9 L21,9 L21,12 L18,12 Z" id="Fill"></path>
                        </g>
                    </g>
                </g>
            </g>
        </g>
    </g>
</svg>