<svg width="22" height="18" viewBox="0 0 22 18" version="1.1" xmlns="http://www.w3.org/2000/svg"><g id="Detail-Pages" stroke="none" stroke-width="1" fill="none" fill-rule="evenodd"><g id="Program-Detail" transform="translate(-301 -800)" fill="#B0E8FE"><g id="Group-21" transform="translate(120 741)"><g id="Group" transform="translate(0 48)"><g id="Group-10" transform="translate(172)"><g id="Tools-/-Instruments-/-tool-box-/-24" transform="translate(8 8)"><path d="M20.25 6.75H18V4.5A1.5 1.5 0 0016.5 3h-9A1.5 1.5 0 006 4.5v2.25H3.75A2.25 2.25 0 001.5 9v10.5A1.5 1.5 0 003 21h18a1.5 1.5 0 001.5-1.5V9a2.25 2.25 0 00-2.25-2.25zM7.5 4.5h9v2.25h-9V4.5zm13.5 15H3v-6.75h6v3.75h6v-3.75h6v6.75zm-10.5-6.75h3V15h-3v-2.25zM3 11.25V9a.75.75 0 01.75-.75h16.5A.75.75 0 0121 9v2.25H3z" id="Fill"/></g></g></g></g></g></g></svg>