<svg width="22" height="18" viewBox="0 0 22 18" version="1.1" xmlns="http://www.w3.org/2000/svg"><g id="Detail-Pages" stroke="none" stroke-width="1" fill="none" fill-rule="evenodd"><g id="Program-Detail" transform="translate(-709 -800)" fill="#B0E8FE"><g id="Group-21" transform="translate(120 741)"><g id="Group" transform="translate(0 48)"><g id="Group-10-Copy" transform="translate(580)"><g id="Tools-/-Instruments-/-tool-box-/-24" transform="translate(8 8)"><path d="M19.365 7.5H22.5V6h-3.135a2.25 2.25 0 00-4.23 0H9.75V3.75h-6V6H1.5v1.5h2.25v2.25h6V7.5h5.385A2.25 2.25 0 0016.5 8.865v5.49a3 3 0 00-2.145 2.145H1.5V18h12.855a3 3 0 005.79 0H22.5v-1.5h-2.355A3 3 0 0018 14.355v-5.49A2.25 2.25 0 0019.365 7.5zM8.25 8.25h-3v-3h3v3zm10.5 9a1.5 1.5 0 11-3 0 1.5 1.5 0 013 0z" id="Fill"/></g></g></g></g></g></g></svg>