<svg width="22" height="22" viewBox="0 0 22 22" version="1.1" xmlns="http://www.w3.org/2000/svg"><g id="Detail-Pages" stroke="none" stroke-width="1" fill="none" fill-rule="evenodd"><g id="Program-Detail" transform="translate(-1117 -798)" fill="#B0E8FE"><g id="Group-21" transform="translate(120 741)"><g id="Group" transform="translate(0 48)"><g id="Group-10-Copy-2" transform="translate(988)"><g id="Tools-/-Instruments-/-tool-box-/-24" transform="translate(8 8)"><path d="M6 3v3H3V3h3zM1.5 1.5v6h6v-6h-6zm12 3.75v3h-3v-3h3zM9 3.75v6h6v-6H9zM6 12v3H3v-3h3zm-4.5-1.5v6h6v-6h-6zm15-3V12H12v4.5H7.5v6h15v-15h-6zm-3 6h3v3h-3v-3zM12 21H9v-3h3v3zm4.5 0h-3v-3h3v3zm4.5 0h-3v-3h3v3zm0-4.5h-3v-3h3v3zM18 12V9h3v3h-3z" id="Fill"/></g></g></g></g></g></g></svg>