<?xml version="1.0" encoding="UTF-8"?>
<svg width="22px" height="18px" viewBox="0 0 22 18" version="1.1" xmlns="http://www.w3.org/2000/svg" xmlns:xlink="http://www.w3.org/1999/xlink">
    <title>research</title>
    <g id="Detail-Pages" stroke="none" stroke-width="1" fill="none" fill-rule="evenodd">
        <g id="Program-Detail" transform="translate(-709.000000, -800.000000)" fill="#B0E8FE">
            <g id="Group-21" transform="translate(120.000000, 741.000000)">
                <g id="Group" transform="translate(0.000000, 48.000000)">
                    <g id="Group-10-Copy" transform="translate(580.000000, 0.000000)">
                        <g id="Tools-/-Instruments-/-tool-box-/-24" transform="translate(8.000000, 8.000000)">
                            <path d="M19.365,7.5 L22.5,7.5 L22.5,6 L19.365,6 C19.0420312,5.11015992 18.1966384,4.51764249 17.25,4.51764249 C16.3033616,4.51764249 15.4579688,5.11015992 15.135,6 L9.75,6 L9.75,3.75 L3.75,3.75 L3.75,6 L1.5,6 L1.5,7.5 L3.75,7.5 L3.75,9.75 L9.75,9.75 L9.75,7.5 L15.135,7.5 C15.3617867,8.13698689 15.8630131,8.63821332 16.5,8.865 L16.5,14.355 C15.4495505,14.62921 14.62921,15.4495505 14.355,16.5 L1.5,16.5 L1.5,18 L14.355,18 C14.7100484,19.3064703 15.8961448,20.2132504 17.25,20.2132504 C18.6038552,20.2132504 19.7899516,19.3064703 20.145,18 L22.5,18 L22.5,16.5 L20.145,16.5 C19.87079,15.4495505 19.0504495,14.62921 18,14.355 L18,8.865 C18.6369869,8.63821332 19.1382133,8.13698689 19.365,7.5 Z M8.25,8.25 L5.25,8.25 L5.25,5.25 L8.25,5.25 L8.25,8.25 Z M18.75,17.25 C18.75,18.0784271 18.0784271,18.75 17.25,18.75 C16.4215729,18.75 15.75,18.0784271 15.75,17.25 C15.75,16.4215729 16.4215729,15.75 17.25,15.75 C18.0784271,15.75 18.75,16.4215729 18.75,17.25 Z" id="Fill"></path>
                        </g>
                    </g>
                </g>
            </g>
        </g>
    </g>
</svg>