<?xml version="1.0" encoding="UTF-8"?>
<svg width="22px" height="18px" viewBox="0 0 22 18" version="1.1" xmlns="http://www.w3.org/2000/svg" xmlns:xlink="http://www.w3.org/1999/xlink">
    <title>work</title>
    <g id="Detail-Pages" stroke="none" stroke-width="1" fill="none" fill-rule="evenodd">
        <g id="Program-Detail" transform="translate(-301.000000, -800.000000)" fill="#B0E8FE">
            <g id="Group-21" transform="translate(120.000000, 741.000000)">
                <g id="Group" transform="translate(0.000000, 48.000000)">
                    <g id="Group-10" transform="translate(172.000000, 0.000000)">
                        <g id="Tools-/-Instruments-/-tool-box-/-24" transform="translate(8.000000, 8.000000)">
                            <path d="M20.25,6.75 L18,6.75 L18,4.5 C18,3.67157288 17.3284271,3 16.5,3 L7.5,3 C6.67157288,3 6,3.67157288 6,4.5 L6,6.75 L3.75,6.75 C2.50735931,6.75 1.5,7.75735931 1.5,9 L1.5,19.5 C1.5,20.3284271 2.17157288,21 3,21 L21,21 C21.8284271,21 22.5,20.3284271 22.5,19.5 L22.5,9 C22.5,7.75735931 21.4926407,6.75 20.25,6.75 Z M7.5,4.5 L16.5,4.5 L16.5,6.75 L7.5,6.75 L7.5,4.5 Z M21,19.5 L3,19.5 L3,12.75 L9,12.75 L9,16.5 L15,16.5 L15,12.75 L21,12.75 L21,19.5 Z M10.5,12.75 L13.5,12.75 L13.5,15 L10.5,15 L10.5,12.75 Z M3,11.25 L3,9 C3,8.58578644 3.33578644,8.25 3.75,8.25 L20.25,8.25 C20.6642136,8.25 21,8.58578644 21,9 L21,11.25 L3,11.25 Z" id="Fill"></path>
                        </g>
                    </g>
                </g>
            </g>
        </g>
    </g>
</svg>